<svg xmlns="http://www.w3.org/2000/svg" style="isolation:isolate" viewBox="0 0 1024 1024"><defs><clipPath id="a"><path d="M0 0h1024v1024H0z"/></clipPath></defs><g clip-path="url(#a)"><path fill="#4F4F4F" d="M278.938 126.562h460.538c88.316 0 160.017 71.701 160.017 160.017v460.538c0 88.316-71.701 160.017-160.017 160.017H278.938c-88.316 0-160.017-71.701-160.017-160.017V286.579c0-88.316 71.701-160.017 160.017-160.017Z"/><linearGradient id="b" x1=".45" x2=".451" y1=".721" y2=".461" gradientTransform="matrix(780.572 0 0 48.651 118.921 580.668)" gradientUnits="userSpaceOnUse"><stop offset="0%" stop-opacity=".3"/><stop offset="90%" stop-color="#130f0f" stop-opacity="0"/></linearGradient><path fill="url(#b)" d="M899.493 609.412v19.907l-780.572-28.744v-19.907l780.572 28.744Z"/><path fill="#616161" d="M813.633 888.925c-22.174 11.629-47.403 18.209-74.157 18.209H278.938c-55.486 0-104.413-28.302-133.122-71.245l8.988-234.508 668.867 25.637-10.038 261.907Z"/><linearGradient id="c" x1=".507" x2=".536" y1=".45" y2=".476" gradientTransform="matrix(282.21 0 0 779.976 243.804 126.562)" gradientUnits="userSpaceOnUse"><stop offset="0%" stop-opacity=".3"/><stop offset="57.917%" stop-color="#130f0f" stop-opacity="0"/></linearGradient><path fill="url(#c)" d="M503.683 126.562h22.331L265.038 906.537a159.528 159.528 0 0 1-21.234-3.279l259.879-776.696Z"/><path fill="#757575" d="M503.691 126.562H278.938c-88.316 0-160.017 71.701-160.017 160.017v460.538c0 76.278 53.487 140.162 124.969 156.16l259.801-776.715Z"/><path fill="#9E9E9E" d="M335.192 126.562h404.284c88.316 0 160.017 71.701 160.017 160.017v460.538c0 88.316-71.701 160.017-160.017 160.017h-80.475L335.192 126.562Z"/><linearGradient id="d" x1=".313" x2=".27" y1=".259" y2=".298" gradientTransform="matrix(344.513 0 0 780.572 314.318 126.562)" gradientUnits="userSpaceOnUse"><stop offset="0%" stop-opacity=".3"/><stop offset="59.167%" stop-color="#130f0f" stop-opacity="0"/></linearGradient><path fill="url(#d)" d="M314.318 126.562h20.793l323.72 780.572h-20.794L314.318 126.562Z"/><linearGradient id="e" x1=".691" x2=".401" y1=".623" y2=".502" gradientTransform="matrix(49.218 0 0 780.821 603.981 126.375)" gradientUnits="userSpaceOnUse"><stop offset="0%" stop-opacity=".16"/><stop offset="72.083%" stop-color="#130f0f" stop-opacity="0"/></linearGradient><path fill="url(#e)" d="m630.678 907.196-26.697-.347 22.559-780.474 26.659 1.662-22.521 779.159Z"/><path fill="#BDBDBD" d="M899.493 451.767v294.138c0 88.985-68.68 161.783-163.229 161.229H631.943l12.781-462.354 254.769 6.987Z"/><path fill="#D6D6D6" d="m899.493 478.553-255.441-6.417 8.681-345.574h86.743c88.316 0 160.017 71.701 160.017 160.017v191.974Z"/><linearGradient id="f" x1=".5" x2=".39" y1="0" y2=".481" gradientTransform="matrix(256.743 0 0 30.341 642.625 472.366)" gradientUnits="userSpaceOnUse"><stop offset="0%" stop-opacity=".16"/><stop offset="97.917%" stop-color="#130f0f" stop-opacity="0"/></linearGradient><path fill="url(#f)" d="M899.368 479.36v23.347l-256.743-7.011.647-23.33 256.096 6.994Z"/></g></svg>